<svg width="1439" height="604" viewBox="0 0 1439 604" fill="none" xmlns="http://www.w3.org/2000/svg">
<rect width="1440" height="604" fill="#C8E2DF" fill-opacity="0.5"/>
<rect width="1440" height="604" transform="matrix(1 0 0 -1 0 604)" fill="#C8E2DF" fill-opacity="0.5"/>
<path d="M371 0H786L1020 604H592L371 0Z" fill="#44403F"/>
<path d="M371 604H786L1020 9.65595e-06H592L371 604Z" fill="#44403F"/>
<path opacity="0.8" d="M786 0H917L1151 604H1020L786 0Z" fill="#A2D3E1"/>
<path opacity="0.8" d="M786 604H917L1151 9.65595e-06H1020L786 604Z" fill="#A2D3E1"/>
<path opacity="0.9" d="M1074 604H1206L1440 9.65595e-06H1308L1074 604Z" fill="#3F95A9"/>
<path opacity="0.9" d="M1074 0H1206L1440 604H1308L1074 0Z" fill="#3F95A9"/>
<path opacity="0.9" d="M917 0H1027.14L1262 604H1150.99L917 0Z" fill="#66B5C4"/>
<path opacity="0.9" d="M917 604H1027.14L1262 9.65595e-06H1150.99L917 604Z" fill="#66B5C4"/>
</svg>